<svg width="14" height="14" viewBox="0 0 14 14" fill="none" xmlns="http://www.w3.org/2000/svg">
	<g clip-path="url(#clip0_197_753)">
		<path d="M7.00003 1.14355C3.62364 1.14355 0.888916 3.83244 0.888916 7.14874C0.888916 9.80249 2.63975 12.0529 5.06739 12.8463C5.37294 12.9029 5.48498 12.717 5.48498 12.5576C5.48498 12.415 5.47989 12.0371 5.47734 11.5365C3.77743 11.8986 3.41892 10.7309 3.41892 10.7309C3.14086 10.0378 2.73905 9.8524 2.73905 9.8524C2.18549 9.48013 2.78183 9.48777 2.78183 9.48777C3.39549 9.52953 3.71785 10.1065 3.71785 10.1065C4.26276 11.0247 5.14836 10.7594 5.49771 10.6061C5.55271 10.2175 5.71007 9.95323 5.88475 9.803C4.52757 9.65277 3.10114 9.13638 3.10114 6.83555C3.10114 6.18013 3.33794 5.64439 3.73007 5.22425C3.66132 5.07249 3.45507 4.46189 3.78355 3.63485C3.78355 3.63485 4.29535 3.47392 5.4641 4.25055C5.95299 4.11712 6.47243 4.05092 6.99188 4.04786C7.51132 4.05092 8.03077 4.11712 8.51966 4.25055C9.68077 3.47392 10.1926 3.63485 10.1926 3.63485C10.521 4.46189 10.3148 5.07249 10.2537 5.22425C10.6433 5.64439 10.8801 6.18013 10.8801 6.83555C10.8801 9.14249 9.4516 9.65022 8.09188 9.79791C8.30577 9.97818 8.50438 10.3464 8.50438 10.9091C8.50438 11.7127 8.49674 12.3585 8.49674 12.5535C8.49674 12.7109 8.60368 12.8988 8.91688 12.8387C11.3618 12.0504 13.1111 9.79842 13.1111 7.14874C13.1111 3.83244 10.3749 1.14355 7.00003 1.14355Z" fill="#6A7282" />
	</g>
	<defs>
		<clipPath id="clip0_197_753">
			<rect width="12.2222" height="12.2222" fill="white" transform="translate(0.888916 0.888916)" />
		</clipPath>
	</defs>
</svg>
