<svg width="94" height="30" viewBox="0 0 94 30" fill="none" xmlns="http://www.w3.org/2000/svg">
	<path d="M6.10906 8.18354C6.06525 7.54778 6.54768 6.99706 7.18659 6.95346L20.0044 6.07892C20.6433 6.03533 21.1968 6.51537 21.2406 7.15113L22.1195 19.9057C22.1633 20.5415 21.6808 21.0922 21.0419 21.1358L8.22411 22.0103C7.5852 22.0539 7.03175 21.5739 6.98794 20.9381L6.10906 8.18354Z" fill="#5E5E5E" />
	<path d="M8.46651 13.1319C8.20427 11.2381 9.53458 9.49127 11.4378 9.23033L19.5706 8.1153C21.4739 7.85436 23.2294 9.17811 23.4916 11.072L24.6122 19.1647C24.8744 21.0585 23.5441 22.8053 21.6408 23.0663L13.508 24.1813C11.6048 24.4423 9.84929 23.1185 9.58706 21.2246L8.46651 13.1319Z" fill="#82858B" />
	<path d="M11.6794 19.6209C10.8253 15.5409 13.4568 11.5444 17.557 10.6944C21.6572 9.84448 25.6736 12.463 26.5277 16.543C27.3819 20.623 24.7504 24.6195 20.6502 25.4695C16.5499 26.3194 12.5336 23.7009 11.6794 19.6209Z" fill="#DBDBDB" />
	<path d="M37.6859 20.9423C36.793 20.9423 36.0161 20.7923 35.3552 20.4923C34.6942 20.1923 34.184 19.7712 33.8245 19.2288C33.4651 18.6865 33.2853 18.0462 33.2853 17.3077H35.8944C35.8944 17.7346 36.0567 18.075 36.3814 18.3288C36.7176 18.5712 37.1699 18.6923 37.7381 18.6923C38.2831 18.6923 38.7063 18.5712 39.0078 18.3288C39.3209 18.0865 39.4774 17.7519 39.4774 17.325C39.4774 16.9558 39.3615 16.6385 39.1295 16.3731C38.8976 16.1077 38.5729 15.9288 38.1555 15.8365L36.8684 15.5423C35.79 15.2885 34.9493 14.8212 34.3463 14.1404C33.755 13.4481 33.4593 12.6058 33.4593 11.6135C33.4593 10.875 33.6274 10.2346 33.9637 9.69231C34.3115 9.13846 34.7986 8.71154 35.4247 8.41154C36.0509 8.11154 36.793 7.96154 37.6511 7.96154C38.9498 7.96154 39.976 8.28462 40.7297 8.93077C41.4951 9.56538 41.8777 10.425 41.8777 11.5096H39.2687C39.2687 11.1058 39.1237 10.7885 38.8339 10.5577C38.5556 10.3269 38.1497 10.2115 37.6163 10.2115C37.1177 10.2115 36.735 10.3269 36.4683 10.5577C36.2016 10.7769 36.0683 11.0942 36.0683 11.5096C36.0683 11.8788 36.1726 12.1962 36.3814 12.4615C36.6017 12.7154 36.909 12.8885 37.3032 12.9808L38.6599 13.2923C39.7847 13.5462 40.637 14.0077 41.2168 14.6769C41.7965 15.3346 42.0864 16.1769 42.0864 17.2038C42.0864 17.9423 41.9009 18.5942 41.5298 19.1596C41.1704 19.725 40.6602 20.1635 39.9992 20.475C39.3499 20.7865 38.5787 20.9423 37.6859 20.9423Z" fill="#1F1F1F" />
	<path d="M46.3932 20.9423C45.5467 20.9423 44.8046 20.7865 44.1669 20.475C43.5407 20.1519 43.0537 19.7077 42.7058 19.1423C42.3695 18.5654 42.2014 17.8962 42.2014 17.1346V14.8846C42.2014 14.1231 42.3695 13.4596 42.7058 12.8942C43.0537 12.3173 43.5407 11.8731 44.1669 11.5615C44.8046 11.2385 45.5467 11.0769 46.3932 11.0769C47.2397 11.0769 47.9702 11.2385 48.5848 11.5615C49.211 11.8731 49.6922 12.3173 50.0285 12.8942C50.3763 13.4596 50.5503 14.1231 50.5503 14.8846V16.6154H44.6887V17.1346C44.6887 17.7346 44.8336 18.1904 45.1235 18.5019C45.4134 18.8019 45.8482 18.9519 46.428 18.9519C46.8339 18.9519 47.1585 18.8827 47.402 18.7442C47.6572 18.6058 47.8253 18.4154 47.9065 18.1731H50.4633C50.2546 19.0038 49.7792 19.6731 49.037 20.1808C48.3065 20.6885 47.4252 20.9423 46.3932 20.9423ZM48.063 15.2827V14.85C48.063 14.2615 47.9239 13.8115 47.6456 13.5C47.3789 13.1885 46.9614 13.0327 46.3932 13.0327C45.825 13.0327 45.396 13.1942 45.1061 13.5173C44.8278 13.8404 44.6887 14.2962 44.6887 14.8846V15.1442L48.2369 15.1096L48.063 15.2827Z" fill="#1F1F1F" />
	<path d="M56.6312 20.7692C55.9586 20.7692 55.3673 20.6308 54.8571 20.3538C54.3468 20.0654 53.9468 19.6673 53.6569 19.1596C53.3786 18.6519 53.2395 18.0635 53.2395 17.3942V10.4712H50.2826V8.13461H55.8485V17.3942C55.8485 17.7058 55.9412 17.9596 56.1268 18.1558C56.3239 18.3404 56.579 18.4327 56.8921 18.4327H59.675V20.7692H56.6312Z" fill="#1F1F1F" />
	<path d="M61.9294 20.7692V14.7115H59.39V12.375H61.9294V11.0769C61.9294 10.1885 62.2309 9.47885 62.8339 8.94808C63.4484 8.40577 64.2485 8.13461 65.2342 8.13461H68.0345V10.3846H65.3211C65.0892 10.3846 64.8979 10.4596 64.7472 10.6096C64.608 10.7481 64.5384 10.9327 64.5384 11.1635V12.375H68.0345V14.7115H64.5384V20.7692H61.9294Z" fill="#1F1F1F" />
	<path d="M72.4457 20.9423C71.9123 20.9423 71.4832 20.7865 71.1586 20.475C70.8455 20.1519 70.6889 19.725 70.6889 19.1942C70.6889 18.6519 70.8455 18.225 71.1586 17.9135C71.4832 17.6019 71.9123 17.4462 72.4457 17.4462C72.9907 17.4462 73.4197 17.6019 73.7328 17.9135C74.0459 18.225 74.2024 18.6519 74.2024 19.1942C74.2024 19.725 74.0459 20.1519 73.7328 20.475C73.4197 20.7865 72.9907 20.9423 72.4457 20.9423Z" fill="#1F1F1F" />
	<path d="M80.7356 20.9423C79.9471 20.9423 79.2571 20.8212 78.6657 20.5788C78.0744 20.325 77.6105 19.9788 77.2743 19.5404C76.9496 19.1019 76.7872 18.5885 76.7872 18H79.3963C79.3963 18.2769 79.518 18.5019 79.7615 18.675C80.0166 18.8365 80.3413 18.9173 80.7356 18.9173H81.5009C81.9763 18.9173 82.3358 18.8308 82.5793 18.6577C82.8344 18.4846 82.9619 18.2423 82.9619 17.9308C82.9619 17.6423 82.8518 17.4231 82.6315 17.2731C82.4111 17.1115 82.0691 17.0019 81.6052 16.9442L80.4921 16.8058C79.2977 16.6558 78.428 16.3673 77.883 15.9404C77.338 15.5135 77.0655 14.8615 77.0655 13.9846C77.0655 13.0615 77.3844 12.3462 78.0222 11.8385C78.66 11.3308 79.5934 11.0769 80.8225 11.0769H81.4835C82.6547 11.0769 83.5881 11.3308 84.2838 11.8385C84.9796 12.3462 85.3274 13.0269 85.3274 13.8808H82.7184C82.7184 13.65 82.6025 13.4654 82.3706 13.3269C82.1502 13.1769 81.8546 13.1019 81.4835 13.1019H80.8225C80.3935 13.1019 80.0804 13.1769 79.8833 13.3269C79.6862 13.4654 79.5876 13.6788 79.5876 13.9673C79.5876 14.2327 79.6746 14.4346 79.8485 14.5731C80.034 14.7115 80.3239 14.8096 80.7182 14.8673L81.9183 15.0231C83.1243 15.1731 84.0171 15.4731 84.5969 15.9231C85.1883 16.3731 85.484 17.0423 85.484 17.9308C85.484 18.9 85.1477 19.6442 84.4752 20.1635C83.8026 20.6827 82.8112 20.9423 81.5009 20.9423H80.7356Z" fill="#1F1F1F" />
	<path d="M89.8256 20.9423C88.9791 20.9423 88.2428 20.7865 87.6166 20.475C86.9904 20.1519 86.5034 19.7077 86.1555 19.1423C85.8193 18.5654 85.6511 17.8962 85.6511 17.1346V14.8846C85.6511 14.1231 85.8193 13.4596 86.1555 12.8942C86.5034 12.3173 86.9904 11.8731 87.6166 11.5615C88.2428 11.2385 88.9791 11.0769 89.8256 11.0769C90.6836 11.0769 91.42 11.2385 92.0345 11.5615C92.6607 11.8731 93.1419 12.3173 93.4782 12.8942C93.8261 13.4596 94 14.1231 94 14.8846V17.1346C94 17.8962 93.8261 18.5654 93.4782 19.1423C93.1419 19.7077 92.6607 20.1519 92.0345 20.475C91.42 20.7865 90.6836 20.9423 89.8256 20.9423ZM89.8256 18.6923C90.3358 18.6923 90.7242 18.5596 90.9909 18.2942C91.2576 18.0173 91.391 17.6308 91.391 17.1346V14.8846C91.391 14.3769 91.2576 13.9904 90.9909 13.725C90.7242 13.4596 90.3358 13.3269 89.8256 13.3269C89.327 13.3269 88.9385 13.4596 88.6602 13.725C88.3935 13.9904 88.2602 14.3769 88.2602 14.8846V17.1346C88.2602 17.6308 88.3935 18.0173 88.6602 18.2942C88.9385 18.5596 89.327 18.6923 89.8256 18.6923Z" fill="#1F1F1F" />
</svg>
