<svg width="52" height="41" viewBox="0 0 52 41" fill="none" xmlns="http://www.w3.org/2000/svg">
	<path d="M18.8014 32.3516C18.3909 32.3501 17.9961 32.1868 17.6964 31.8944C16.2125 30.4266 15.0308 28.6594 14.2232 26.7005C13.4157 24.7416 12.9993 22.632 12.9993 20.5C12.9993 18.3681 13.4157 16.2585 14.2232 14.2996C15.0308 12.3407 16.2125 10.5735 17.6964 9.10559C18.0162 8.83543 18.4224 8.70179 18.8331 8.73169C19.2438 8.76158 19.6283 8.95278 19.9089 9.26664C20.1895 9.5805 20.3453 9.99364 20.3449 10.4226C20.3444 10.8515 20.1877 11.2643 19.9064 11.5775C18.7513 12.7311 17.8321 14.1163 17.2041 15.6496C16.5762 17.183 16.2525 18.8329 16.2525 20.5C16.2525 22.1671 16.5762 23.817 17.2041 25.3504C17.8321 26.8838 18.7513 28.2689 19.9064 29.4226C20.144 29.6543 20.3093 29.9551 20.381 30.2859C20.4526 30.6167 20.4272 30.9623 20.3082 31.2779C20.1891 31.5935 19.9818 31.8646 19.7132 32.056C19.4445 32.2474 19.1269 32.3504 18.8014 32.3516ZM12.3014 36.889C12.604 36.5718 12.7739 36.1427 12.7739 35.6954C12.7739 35.2481 12.604 34.819 12.3014 34.5018C10.4834 32.6947 9.03623 30.522 8.04746 28.1153C7.05869 25.7086 6.54888 23.1179 6.54888 20.5C6.54888 17.8821 7.05869 15.2914 8.04746 12.8847C9.03623 10.478 10.4834 8.30536 12.3014 6.49824C12.616 6.18167 12.797 5.74786 12.8047 5.29222C12.8123 4.83659 12.6459 4.39647 12.342 4.06867C12.0382 3.74088 11.6218 3.55227 11.1845 3.54433C10.7472 3.53639 10.3248 3.70978 10.0101 4.02635C7.86957 6.1515 6.16545 8.70739 5.00108 11.5391C3.83671 14.3708 3.23633 17.4194 3.23633 20.5C3.23633 23.5807 3.83671 26.6292 5.00108 29.4609C6.16545 32.2926 7.86957 34.8485 10.0101 36.9737C10.1665 37.127 10.3505 37.2464 10.5514 37.3252C10.7523 37.404 10.9663 37.4405 11.1808 37.4326C11.3954 37.4247 11.6063 37.3727 11.8014 37.2794C11.9966 37.1861 12.172 37.0534 12.3176 36.889H12.3014ZM34.2876 31.8944C35.7716 30.4266 36.9533 28.6594 37.7608 26.7005C38.5683 24.7416 38.9847 22.632 38.9847 20.5C38.9847 18.3681 38.5683 16.2585 37.7608 14.2996C36.9533 12.3407 35.7716 10.5735 34.2876 9.10559C34.1319 8.95329 33.9488 8.83444 33.749 8.75585C33.5491 8.67725 33.3363 8.64044 33.1228 8.64751C32.9093 8.65459 32.6992 8.70541 32.5045 8.79708C32.3099 8.88875 32.1344 9.01947 31.9883 9.18177C31.8421 9.34408 31.728 9.5348 31.6526 9.74303C31.5772 9.95127 31.5418 10.1729 31.5486 10.3954C31.5554 10.6179 31.6042 10.8368 31.6922 11.0396C31.7801 11.2424 31.9056 11.4252 32.0614 11.5775C33.2227 12.7273 34.1475 14.1113 34.7794 15.6452C35.4113 17.179 35.7372 18.8308 35.7372 20.5C35.7372 22.1692 35.4113 23.821 34.7794 25.3549C34.1475 26.8888 33.2227 28.2727 32.0614 29.4226C31.7477 29.7284 31.563 30.1513 31.5478 30.5987C31.5326 31.0461 31.688 31.4815 31.9801 31.8098C32.1335 31.9821 32.3196 32.1193 32.5267 32.2125C32.7337 32.3058 32.9571 32.3532 33.1826 32.3516C33.5932 32.3501 33.988 32.1868 34.2876 31.8944ZM41.9576 36.9737C44.1045 34.8523 45.8142 32.2977 46.9825 29.4655C48.1509 26.6332 48.7535 23.5828 48.7535 20.5C48.7535 17.4173 48.1509 14.3668 46.9825 11.5346C45.8142 8.70236 44.1045 6.14771 41.9576 4.02635C41.6379 3.75618 41.2316 3.62255 40.8209 3.65245C40.4102 3.68234 40.0257 3.87353 39.7451 4.1874C39.4645 4.50126 39.3087 4.9144 39.3092 5.34334C39.3096 5.77228 39.4663 6.18505 39.7476 6.49824C41.5656 8.30536 43.0128 10.478 44.0016 12.8847C44.9903 15.2914 45.5002 17.8821 45.5002 20.5C45.5002 23.1179 44.9903 25.7086 44.0016 28.1153C43.0128 30.522 41.5656 32.6947 39.7476 34.5018C39.4339 34.8077 39.2493 35.2306 39.2341 35.6779C39.2188 36.1253 39.3743 36.5608 39.6664 36.889C39.8179 37.0593 40.0014 37.1952 40.2055 37.2884C40.4095 37.3816 40.6298 37.4301 40.8526 37.4308C41.2632 37.4293 41.658 37.266 41.9576 36.9737ZM29.2501 20.5C29.2501 19.8303 29.0595 19.1756 28.7024 18.6188C28.3453 18.0619 27.8377 17.6279 27.2439 17.3716C26.65 17.1153 25.9965 17.0483 25.3661 17.1789C24.7357 17.3096 24.1566 17.6321 23.702 18.1056C23.2475 18.5792 22.938 19.1826 22.8126 19.8394C22.6872 20.4963 22.7515 21.1771 22.9975 21.7958C23.2435 22.4146 23.6601 22.9434 24.1945 23.3155C24.729 23.6876 25.3574 23.8862 26.0001 23.8862C26.8621 23.8862 27.6887 23.5294 28.2982 22.8944C28.9077 22.2594 29.2501 21.3981 29.2501 20.5Z" fill="#1F1F1F" />
</svg>
