<svg width="24" height="24" viewBox="0 0 24 24" fill="none" xmlns="http://www.w3.org/2000/svg">
	<path d="M16.575 6.78749L11.7375 2.06249C11.475 1.79999 11.0625 1.61249 10.65 1.61249H4.2C1.9875 1.61249 0.1875 3.41249 0.1875 5.62499V18.375C0.1875 20.5875 1.9875 22.3875 4.2 22.3875H8.1375C7.8375 22.0125 7.65 21.525 7.575 21.0375H4.2C2.7375 21.0375 1.575 19.8375 1.575 18.4125V5.62499C1.575 4.16249 2.775 2.99999 4.2 2.99999H10.65C10.6875 2.99999 10.725 2.99999 10.7625 3.03749L10.8 3.07499V5.21249C10.8375 5.47499 10.9125 5.77499 11.025 6.03749C11.475 7.01249 12.4125 7.72499 13.5 7.87499C13.6125 7.87499 13.7625 7.91249 13.875 7.91249L15.7125 7.98749C15.75 8.06249 15.75 8.09999 15.75 8.17499V13.5375H17.1V8.09999C17.1375 7.61249 16.9125 7.12499 16.575 6.78749Z" fill="#1F1F1F" />
	<path d="M12.975 17.475C13.0125 17.55 13.05 17.625 13.05 17.7375C13.05 17.9625 12.975 18.1125 12.825 18.225C12.675 18.3 12.45 18.3375 12.1125 18.3375H11.8125V17.175H11.9625H12.15C12.2625 17.175 12.4125 17.175 12.4875 17.2125C12.6 17.25 12.675 17.25 12.75 17.2875C12.8625 17.3625 12.9375 17.4 12.975 17.475Z" fill="#1F1F1F" />
	<path d="M16.875 17.5125C16.65 17.2875 16.35 17.175 15.9 17.175C15.825 17.175 15.7875 17.175 15.7125 17.175C15.6375 17.175 15.6 17.175 15.525 17.175V19.6875H15.675H15.8625C16.3125 19.6875 16.65 19.575 16.875 19.35C17.1 19.125 17.2125 18.825 17.2125 18.4125C17.2125 18.0375 17.1 17.7375 16.875 17.5125ZM16.875 17.5125C16.65 17.2875 16.35 17.175 15.9 17.175C15.825 17.175 15.7875 17.175 15.7125 17.175C15.6375 17.175 15.6 17.175 15.525 17.175V19.6875H15.675H15.8625C16.3125 19.6875 16.65 19.575 16.875 19.35C17.1 19.125 17.2125 18.825 17.2125 18.4125C17.2125 18.0375 17.1 17.7375 16.875 17.5125ZM22.0875 14.55H10.3875C9.44998 14.55 8.66248 15.3 8.66248 16.275V20.6625C8.66248 21.6 9.41248 22.3875 10.3875 22.3875H22.0875C23.025 22.3875 23.8125 21.6 23.8125 20.6625V16.275C23.8125 15.3375 23.025 14.55 22.0875 14.55ZM13.5 18.825C13.1625 19.05 12.7125 19.1625 12.1125 19.1625H11.8125V20.0625C11.8125 20.325 11.625 20.5125 11.3625 20.5125C11.1 20.5125 10.9125 20.325 10.9125 20.0625V16.725C10.9125 16.65 10.9875 16.575 11.0625 16.575C11.2125 16.5375 11.3625 16.5375 11.55 16.5375C11.775 16.5375 11.9625 16.5 12.1125 16.5C12.7125 16.5 13.1625 16.6125 13.5 16.8C13.8375 17.025 13.9875 17.3625 13.9875 17.8125C13.95 18.2625 13.8 18.6 13.5 18.825ZM17.9625 19.3875C17.85 19.65 17.7 19.875 17.5125 20.025C17.325 20.175 17.0625 20.325 16.8 20.4C16.5 20.475 16.2 20.5125 15.825 20.5125C15.675 20.5125 15.4875 20.5125 15.2625 20.475C15.075 20.475 14.925 20.4375 14.775 20.4C14.7 20.4 14.625 20.325 14.625 20.25V16.65C14.625 16.575 14.7 16.5 14.775 16.5C14.925 16.4625 15.1125 16.4625 15.3 16.4625C15.525 16.4625 15.7125 16.425 15.8625 16.425C16.2 16.425 16.5 16.4625 16.8 16.5375C17.0625 16.6125 17.325 16.725 17.5125 16.9125C17.7 17.0625 17.85 17.2875 17.9625 17.55C18.075 17.8125 18.1125 18.1125 18.1125 18.4875C18.1125 18.825 18.075 19.125 17.9625 19.3875ZM21.15 17.2125H19.7625V18.0375H20.9625C21.1875 18.0375 21.3375 18.1875 21.3375 18.4125C21.3375 18.6375 21.15 18.7875 20.9625 18.7875H19.7625V19.9875C19.7625 20.25 19.575 20.4375 19.3125 20.4375C19.05 20.4375 18.8625 20.25 18.8625 19.9875V16.6125C18.8625 16.5375 18.9375 16.4625 19.0125 16.4625H21.15C21.375 16.4625 21.525 16.65 21.525 16.8375C21.525 17.0625 21.375 17.2125 21.15 17.2125ZM15.9 17.2125C15.825 17.2125 15.7875 17.2125 15.7125 17.2125C15.6375 17.2125 15.6 17.2125 15.525 17.2125V19.725H15.675H15.8625C16.3125 19.725 16.65 19.6125 16.875 19.3875C17.1 19.1625 17.2125 18.8625 17.2125 18.45C17.2125 18.0375 17.1 17.7 16.9125 17.5125C16.6875 17.2875 16.35 17.2125 15.9 17.2125Z" fill="#1F1F1F" />
</svg>
